<svg width="76" height="49" viewBox="0 0 76 49" fill="none" xmlns="http://www.w3.org/2000/svg">
<path fill-rule="evenodd" clip-rule="evenodd" d="M20.5648 14.4284C25.052 14.4284 26.9414 18.1362 27.1775 21.0551C27.4137 23.974 24.8158 28.313 21.352 28.4708C17.8882 28.6285 14.7393 26.0252 14.1882 22.6329C13.6371 19.2406 16.0776 14.4284 20.5648 14.4284ZM18.2031 17.2684C15.369 17.5051 14.7393 19.714 14.6605 22.0807C14.5818 24.4474 15.9988 26.5774 18.6754 26.4985C21.352 26.4196 22.9265 23.974 22.6116 21.6073C22.2967 19.2406 21.0371 17.0317 18.2031 17.2684Z" fill="white"/>
<path d="M14.6605 22.0807C14.7393 19.714 15.369 17.5051 18.2031 17.2684C21.0371 17.0317 22.2967 19.2406 22.6116 21.6073C22.9265 23.974 21.352 26.4196 18.6754 26.4985C15.9988 26.5774 14.5818 24.4474 14.6605 22.0807Z" fill="black"/>
<path fill-rule="evenodd" clip-rule="evenodd" d="M3.56079 25.3152C2.09286 25.2592 1.34885 25.3514 0.648029 26.4985C-0.471408 28.4794 -0.0453734 29.7286 1.19909 32.0208C6.2576 33.2341 8.74805 32.7846 12.3776 29.3385L13.1648 30.6797C9.54035 34.0235 7.14451 34.7512 2.30122 34.072C5.38225 38.8169 7.41672 40.5358 11.1182 43.3809C14.3058 45.5237 16.2094 46.4628 19.8565 47.5621C24.538 48.5862 27.2336 48.8586 32.2161 48.5877C34.6576 48.3431 35.9211 48.167 38.2778 47.7199C43.8961 45.6223 46.2277 44.227 49.4565 41.4876C53.872 37.6063 55.8956 35.4076 59.1395 31.4686C60.6954 29.4185 61.291 28.3878 62.3671 26.6563C61.2436 25.3578 61.4227 25.3941 59.1395 22.8696C56.8562 20.3451 55.1545 18.9678 52.3693 16.4795C46.146 10.9433 37.3329 4.56714 35.365 3.62046C33.3972 2.67378 29.6121 1.14937 25.5246 0.228197C17.9625 1.07181 14.7579 3.03539 10.2523 8.27496C7.95553 11.2354 6.80571 13.1318 5.05654 17.0317C4.03564 20.1425 3.63493 21.9356 3.56079 25.3152ZM35.7587 28.7075C37.8056 27.7608 45.8352 27.4452 48.0395 30.0486C50.2438 32.652 45.2054 37.3853 40.9544 38.1742C36.7034 38.9632 33.4758 36.7542 32.6097 34.072C31.7437 31.3897 33.7117 29.6542 35.7587 28.7075ZM27.1775 21.0551C26.9414 18.1362 25.052 14.4284 20.5648 14.4284C16.0776 14.4284 13.6371 19.2406 14.1882 22.6329C14.7393 26.0252 17.8882 28.6285 21.352 28.4708C24.8158 28.313 27.4137 23.974 27.1775 21.0551Z" fill="#59ADF2"/>
<path d="M48.0395 30.0486C45.8352 27.4452 37.8056 27.7608 35.7587 28.7075C33.7117 29.6542 31.7437 31.3897 32.6097 34.072C33.4758 36.7542 36.7034 38.9632 40.9544 38.1742C45.2054 37.3853 50.2438 32.652 48.0395 30.0486Z" fill="#3091E1"/>
<path d="M49.4565 41.4876C46.2277 44.227 43.8961 45.6223 38.2778 47.7199C44.7004 49.0484 49.9286 47.7199 51.6605 46.2999C53.3924 44.8799 53.0521 42.7379 49.4565 41.4876Z" fill="#3091E1"/>
<path d="M62.3671 26.6563C61.291 28.3878 60.6954 29.4185 59.1395 31.4686C62.5625 37.5957 67.7201 41.6454 70.6328 42.5132C73.5456 43.3809 75.1201 41.4876 74.9626 38.8053C74.8052 36.1231 72.1782 31.1861 69.6881 27.2085C74.0329 20.0897 75.462 16.6014 74.9626 11.9039C74.6459 9.58604 73.703 9.06386 71.4201 9.5372C69.1371 10.0105 64.8608 14.29 59.1395 22.8696C61.4227 25.3941 61.2436 25.3578 62.3671 26.6563Z" fill="#3091E1"/>
<path d="M35.365 3.62046C37.3329 4.56714 46.146 10.9433 52.3693 16.4795C54.9195 14.0523 55.5179 11.6672 54.2584 9.85276C52.9988 8.03829 49.6381 5.20741 45.9137 3.62046C37.9365 0.167277 33.4735 -0.412219 25.5246 0.228197C29.6121 1.14937 33.3972 2.67378 35.365 3.62046Z" fill="#3091E1"/>
<path d="M1.19909 32.0208L2.30122 34.072C7.14451 34.7512 9.54035 34.0235 13.1648 30.6797L12.3776 29.3385C8.74805 32.7846 6.2576 33.2341 1.19909 32.0208Z" fill="#26447A"/>
</svg>
