<svg width="25" height="26" viewBox="0 0 25 26" fill="none" xmlns="http://www.w3.org/2000/svg">
<g filter="url(#filter0_d_79_639)">
<path d="M23.6763 12.2591C23.6763 18.9866 18.5333 24.4403 12.1892 24.4403C5.84508 24.4403 0.702148 18.9866 0.702148 12.2591C0.702148 5.53169 5.84508 0.0780182 12.1892 0.0780182C18.5333 0.0780182 23.6763 5.53169 23.6763 12.2591Z" fill="#9AE9EA" shape-rendering="crispEdges"/>
<path d="M10.1939 7.29232C10.4319 8.2404 9.58936 9.30118 8.31212 9.66164C7.03489 10.0221 5.80659 9.54572 5.56865 8.59764C5.33071 7.64955 6.17323 6.58877 7.45046 6.22832C8.7277 5.86786 9.95599 6.34423 10.1939 7.29232Z" fill="#D5FDFA" fill-opacity="0.3" shape-rendering="crispEdges"/>
<path d="M23.6763 12.2591C23.6763 18.9866 18.5333 24.4403 12.1892 24.4403C5.84508 24.4403 0.702148 18.9866 0.702148 12.2591C0.702148 5.53169 5.84508 0.0780182 12.1892 0.0780182C18.5333 0.0780182 23.6763 5.53169 23.6763 12.2591Z" stroke="#ACF1EE" stroke-opacity="0.6" stroke-width="0.156045" shape-rendering="crispEdges"/>
<path d="M23.6763 12.2591C23.6763 18.9866 18.5333 24.4403 12.1892 24.4403C5.84508 24.4403 0.702148 18.9866 0.702148 12.2591C0.702148 5.53169 5.84508 0.0780182 12.1892 0.0780182C18.5333 0.0780182 23.6763 5.53169 23.6763 12.2591Z" stroke="#B5F5F1" stroke-opacity="0.6" stroke-width="0.156045" shape-rendering="crispEdges"/>
<path d="M10.1939 7.29232C10.4319 8.2404 9.58936 9.30118 8.31212 9.66164C7.03489 10.0221 5.80659 9.54572 5.56865 8.59764C5.33071 7.64955 6.17323 6.58877 7.45046 6.22832C8.7277 5.86786 9.95599 6.34423 10.1939 7.29232Z" stroke="#ACF1EE" stroke-opacity="0.6" stroke-width="0.156045" shape-rendering="crispEdges"/>
<path d="M10.1939 7.29232C10.4319 8.2404 9.58936 9.30118 8.31212 9.66164C7.03489 10.0221 5.80659 9.54572 5.56865 8.59764C5.33071 7.64955 6.17323 6.58877 7.45046 6.22832C8.7277 5.86786 9.95599 6.34423 10.1939 7.29232Z" stroke="#B5F5F1" stroke-opacity="0.6" stroke-width="0.156045" shape-rendering="crispEdges"/>
</g>
<defs>
<filter id="filter0_d_79_639" x="-3.37362e-05" y="0" width="24.3785" height="25.7666" filterUnits="userSpaceOnUse" color-interpolation-filters="sRGB">
<feFlood flood-opacity="0" result="BackgroundImageFix"/>
<feColorMatrix in="SourceAlpha" type="matrix" values="0 0 0 0 0 0 0 0 0 0 0 0 0 0 0 0 0 0 127 0" result="hardAlpha"/>
<feOffset dy="0.624179"/>
<feGaussianBlur stdDeviation="0.31209"/>
<feComposite in2="hardAlpha" operator="out"/>
<feColorMatrix type="matrix" values="0 0 0 0 0.754078 0 0 0 0 0.990604 0 0 0 0 0.998761 0 0 0 0.25 0"/>
<feBlend mode="normal" in2="BackgroundImageFix" result="effect1_dropShadow_79_639"/>
<feBlend mode="normal" in="SourceGraphic" in2="effect1_dropShadow_79_639" result="shape"/>
</filter>
</defs>
</svg>
