<svg width="25" height="26" viewBox="0 0 25 26" fill="none" xmlns="http://www.w3.org/2000/svg">
<g filter="url(#filter0_d_79_636)">
<path d="M23.6763 12.2591C23.6763 18.9866 18.5333 24.4403 12.1892 24.4403C5.84508 24.4403 0.702148 18.9866 0.702148 12.2591C0.702148 5.53169 5.84508 0.0780182 12.1892 0.0780182C18.5333 0.0780182 23.6763 5.53169 23.6763 12.2591Z" fill="#9AE9EA" shape-rendering="crispEdges"/>
<path d="M10.194 7.29243C10.432 8.24052 9.58944 9.3013 8.31221 9.66175C7.03498 10.0222 5.80668 9.54584 5.56874 8.59775C5.3308 7.64967 6.17332 6.58889 7.45055 6.22843C8.72778 5.86798 9.95608 6.34435 10.194 7.29243Z" fill="#D5FDFA" fill-opacity="0.3" shape-rendering="crispEdges"/>
<path d="M23.6763 12.2591C23.6763 18.9866 18.5333 24.4403 12.1892 24.4403C5.84508 24.4403 0.702148 18.9866 0.702148 12.2591C0.702148 5.53169 5.84508 0.0780182 12.1892 0.0780182C18.5333 0.0780182 23.6763 5.53169 23.6763 12.2591Z" stroke="#ACF1EE" stroke-opacity="0.6" stroke-width="0.156045" shape-rendering="crispEdges"/>
<path d="M23.6763 12.2591C23.6763 18.9866 18.5333 24.4403 12.1892 24.4403C5.84508 24.4403 0.702148 18.9866 0.702148 12.2591C0.702148 5.53169 5.84508 0.0780182 12.1892 0.0780182C18.5333 0.0780182 23.6763 5.53169 23.6763 12.2591Z" stroke="#B5F5F1" stroke-opacity="0.6" stroke-width="0.156045" shape-rendering="crispEdges"/>
<path d="M10.194 7.29243C10.432 8.24052 9.58944 9.3013 8.31221 9.66175C7.03498 10.0222 5.80668 9.54584 5.56874 8.59775C5.3308 7.64967 6.17332 6.58889 7.45055 6.22843C8.72778 5.86798 9.95608 6.34435 10.194 7.29243Z" stroke="#ACF1EE" stroke-opacity="0.6" stroke-width="0.156045" shape-rendering="crispEdges"/>
<path d="M10.194 7.29243C10.432 8.24052 9.58944 9.3013 8.31221 9.66175C7.03498 10.0222 5.80668 9.54584 5.56874 8.59775C5.3308 7.64967 6.17332 6.58889 7.45055 6.22843C8.72778 5.86798 9.95608 6.34435 10.194 7.29243Z" stroke="#B5F5F1" stroke-opacity="0.6" stroke-width="0.156045" shape-rendering="crispEdges"/>
</g>
<defs>
<filter id="filter0_d_79_636" x="-3.37362e-05" y="0" width="24.3785" height="25.7666" filterUnits="userSpaceOnUse" color-interpolation-filters="sRGB">
<feFlood flood-opacity="0" result="BackgroundImageFix"/>
<feColorMatrix in="SourceAlpha" type="matrix" values="0 0 0 0 0 0 0 0 0 0 0 0 0 0 0 0 0 0 127 0" result="hardAlpha"/>
<feOffset dy="0.624179"/>
<feGaussianBlur stdDeviation="0.31209"/>
<feComposite in2="hardAlpha" operator="out"/>
<feColorMatrix type="matrix" values="0 0 0 0 0.754078 0 0 0 0 0.990604 0 0 0 0 0.998761 0 0 0 0.25 0"/>
<feBlend mode="normal" in2="BackgroundImageFix" result="effect1_dropShadow_79_636"/>
<feBlend mode="normal" in="SourceGraphic" in2="effect1_dropShadow_79_636" result="shape"/>
</filter>
</defs>
</svg>
