<svg width="14" height="14" viewBox="0 0 14 14" fill="none" xmlns="http://www.w3.org/2000/svg">
<g filter="url(#filter0_d_79_635)">
<path d="M12.7362 5.90377C12.7362 9.12124 10.0423 11.7295 6.71917 11.7295C3.39606 11.7295 0.702148 9.12124 0.702148 5.90377C0.702148 2.6863 3.39606 0.0780182 6.71917 0.0780182C10.0423 0.0780182 12.7362 2.6863 12.7362 5.90377Z" fill="#9AE9EA" shape-rendering="crispEdges"/>
<path d="M5.6748 3.52837C5.79944 3.9818 5.35812 4.48913 4.6891 4.66152C4.02007 4.83391 3.37668 4.60608 3.25204 4.15265C3.12741 3.69922 3.56872 3.19189 4.23775 3.0195C4.90678 2.84711 5.55017 3.07493 5.6748 3.52837Z" fill="#D5FDFA" fill-opacity="0.3" shape-rendering="crispEdges"/>
<path d="M12.7362 5.90377C12.7362 9.12124 10.0423 11.7295 6.71917 11.7295C3.39606 11.7295 0.702148 9.12124 0.702148 5.90377C0.702148 2.6863 3.39606 0.0780182 6.71917 0.0780182C10.0423 0.0780182 12.7362 2.6863 12.7362 5.90377Z" stroke="#ACF1EE" stroke-opacity="0.6" stroke-width="0.156045" shape-rendering="crispEdges"/>
<path d="M12.7362 5.90377C12.7362 9.12124 10.0423 11.7295 6.71917 11.7295C3.39606 11.7295 0.702148 9.12124 0.702148 5.90377C0.702148 2.6863 3.39606 0.0780182 6.71917 0.0780182C10.0423 0.0780182 12.7362 2.6863 12.7362 5.90377Z" stroke="#B5F5F1" stroke-opacity="0.6" stroke-width="0.156045" shape-rendering="crispEdges"/>
<path d="M5.6748 3.52837C5.79944 3.9818 5.35812 4.48913 4.6891 4.66152C4.02007 4.83391 3.37668 4.60608 3.25204 4.15265C3.12741 3.69922 3.56872 3.19189 4.23775 3.0195C4.90678 2.84711 5.55017 3.07493 5.6748 3.52837Z" stroke="#ACF1EE" stroke-opacity="0.6" stroke-width="0.156045" shape-rendering="crispEdges"/>
<path d="M5.6748 3.52837C5.79944 3.9818 5.35812 4.48913 4.6891 4.66152C4.02007 4.83391 3.37668 4.60608 3.25204 4.15265C3.12741 3.69922 3.56872 3.19189 4.23775 3.0195C4.90678 2.84711 5.55017 3.07493 5.6748 3.52837Z" stroke="#B5F5F1" stroke-opacity="0.6" stroke-width="0.156045" shape-rendering="crispEdges"/>
</g>
<defs>
<filter id="filter0_d_79_635" x="-3.37362e-05" y="0" width="13.4384" height="13.0559" filterUnits="userSpaceOnUse" color-interpolation-filters="sRGB">
<feFlood flood-opacity="0" result="BackgroundImageFix"/>
<feColorMatrix in="SourceAlpha" type="matrix" values="0 0 0 0 0 0 0 0 0 0 0 0 0 0 0 0 0 0 127 0" result="hardAlpha"/>
<feOffset dy="0.624179"/>
<feGaussianBlur stdDeviation="0.31209"/>
<feComposite in2="hardAlpha" operator="out"/>
<feColorMatrix type="matrix" values="0 0 0 0 0.754078 0 0 0 0 0.990604 0 0 0 0 0.998761 0 0 0 0.25 0"/>
<feBlend mode="normal" in2="BackgroundImageFix" result="effect1_dropShadow_79_635"/>
<feBlend mode="normal" in="SourceGraphic" in2="effect1_dropShadow_79_635" result="shape"/>
</filter>
</defs>
</svg>
