<svg width="58" height="48" viewBox="0 0 58 48" fill="none" xmlns="http://www.w3.org/2000/svg">
<path d="M10.5511 18.8215C10.3722 19.4722 10.2818 20.1388 10.2902 20.779C10.4235 23.1516 11.3199 24.5292 13.1882 24.6073C15.0566 24.6854 17.2363 22.9666 17.0806 20.6227C16.9249 18.2789 14.823 17.0288 13.1882 17.0288C12.0171 17.0288 11.0089 17.5152 10.5511 18.8215Z" fill="black"/>
<path d="M20.5837 19.9977C20.2723 16.4038 18.4818 14.2943 15.2901 14.3724C12.9117 14.4307 11.1817 16.5279 10.5511 18.8215C11.0089 17.5152 12.0171 17.0288 13.1882 17.0288C14.823 17.0288 16.9249 18.2789 17.0806 20.6227C17.2363 22.9666 15.0566 24.6854 13.1882 24.6073C11.3199 24.5292 10.4235 23.1516 10.2902 20.779C10.2903 20.7899 10.2905 20.8007 10.2907 20.8116C10.2929 20.932 10.2986 21.0514 10.3079 21.1696C10.5414 24.1385 12.7212 26.0917 15.2901 25.9355C17.8591 25.7792 20.8951 23.5916 20.5837 19.9977Z" fill="white"/>
<path d="M1.74492 31.9514L2.60124 33.514C6.68013 33.7591 8.25213 32.979 10.3079 30.6232L9.84082 29.6075C7.40071 31.8161 5.66806 32.3964 1.74492 31.9514Z" fill="#448B6D"/>
<path fill-rule="evenodd" clip-rule="evenodd" d="M3.37971 23.201C0.996215 23.9536 -0.417516 24.3065 0.110127 27.6543C0.396502 29.2004 0.626881 30.0932 1.74492 31.9514C5.66806 32.3964 7.40071 31.8161 9.84082 29.6075L10.3079 30.6232C8.25213 32.979 6.68013 33.7591 2.60124 33.514C6.13377 38.1609 8.70261 40.0826 13.8891 42.8113C15.0293 43.3099 16.0722 43.7935 17.0806 44.2341C19.0124 43.0561 20.2234 40.7667 22.5244 34.9203C22.2906 34.3235 22.2502 33.667 22.4521 32.967C22.8815 31.4782 23.6045 30.4806 24.7096 29.9052C24.8408 25.0438 24.7096 20.3883 23.9311 16.0913C23.1527 11.7942 21.3526 8.3566 20.1945 3.22368C19.8591 3.27608 19.5461 3.34573 19.2605 3.43446C15.9911 4.45014 12.7228 6.96082 9.45178 10.7785C5.94143 15.1694 4.4118 17.8082 3.37971 23.201ZM15.2901 14.3724C18.4818 14.2943 20.2723 16.4038 20.5837 19.9977C20.8951 23.5916 17.8591 25.7792 15.2901 25.9355C12.7212 26.0917 10.5414 24.1385 10.3079 21.1696C10.2986 21.0514 10.2929 20.932 10.2907 20.8116C10.2905 20.8007 10.2903 20.7899 10.2902 20.779C10.2749 19.9842 10.3699 19.3386 10.5511 18.8215C11.1817 16.5279 12.9117 14.4307 15.2901 14.3724Z" fill="#469C1A"/>
<path d="M24.2427 46.2489C28.1349 46.5614 34.2852 44.0613 36.4647 42.8113C37.1349 42.4269 37.7903 41.9539 38.4107 41.4423C37.655 35.7533 38.1772 27.1855 38.0993 23.826C38.0215 20.4665 37.404 13.4133 35.7639 7.26933C34.5581 6.32893 33.3781 5.54915 32.4167 5.15329C31.5872 4.81175 30.473 4.45271 29.2248 4.13194C29.4281 8.4551 30.1539 14.5469 30.4703 17.4976C30.7867 20.4483 30.9415 25.1005 31.0931 29.7017C33.9787 30.4519 35.8933 32.218 35.7639 34.6859C35.6082 37.6548 33.3506 38.436 29.2248 38.2798C28.5938 42.8554 27.4991 44.609 24.2427 46.2489Z" fill="#469C1A"/>
<path d="M45.8842 31.1701C47.5722 27.4992 47.5718 25.3387 46.0399 21.3259C45.3866 19.8903 44.8175 18.6225 44.2843 17.4976C44.4706 25.48 44.3068 29.7442 42.9179 36.4828C43.8733 35.038 44.9362 33.1269 45.8842 31.1701Z" fill="#469C1A"/>
<path d="M24.2427 46.2489C27.4991 44.609 28.5938 42.8554 29.2248 38.2798C26.0716 38.1604 23.2822 36.8545 22.5244 34.9203C20.2234 40.7667 19.0124 43.0561 17.0806 44.2341C19.397 45.2462 21.5311 46.0312 24.2427 46.2489Z" fill="#448B6D"/>
<path d="M20.1945 3.22368C21.3526 8.3566 23.1527 11.7942 23.9311 16.0913C24.7096 20.3883 24.8408 25.0438 24.7096 29.9052C25.8082 29.3331 27.2843 29.1784 29.2248 29.3731C29.8816 29.439 30.5073 29.5495 31.0931 29.7017C30.9415 25.1005 30.7867 20.4483 30.4703 17.4976C30.1539 14.5469 29.4281 8.4551 29.2248 4.13194C26.3036 3.38127 22.649 2.84023 20.1945 3.22368Z" fill="#448B6D"/>
<path d="M41.9919 13.3568C41.0877 12.0755 38.3658 9.2985 35.7639 7.26933C37.404 13.4133 38.0215 20.4665 38.0993 23.826C38.1772 27.1855 37.655 35.7533 38.4107 41.4423C39.8081 40.2898 41.0276 38.9412 41.8362 37.9673C42.17 37.5652 42.5353 37.0614 42.9179 36.4828C44.3068 29.7442 44.4706 25.48 44.2843 17.4976C43.4938 15.83 42.7821 14.4766 41.9919 13.3568Z" fill="#448B6D"/>
<path d="M36.4647 42.8113C34.2852 44.0613 28.1349 46.5614 24.2427 46.2489C24.3562 46.4604 38.3131 48.111 44.7163 46.2489C47.4846 45.4937 47.2853 43.905 46.5068 42.8113C45.7283 41.7175 43.7179 39.7538 41.8362 37.9673C41.0276 38.9412 39.8081 40.2898 38.4107 41.4423C37.7903 41.9539 37.1349 42.4269 36.4647 42.8113Z" fill="#13B258"/>
<path d="M46.0399 21.3259C47.5718 25.3387 47.5722 27.4992 45.8842 31.1701C49.3073 36.0368 51.7226 37.9673 54.2915 38.2798C56.8605 38.5923 58.2617 36.561 57.2497 33.9046C56.2377 31.2482 54.2137 29.0606 53.8244 27.9668C53.4352 26.873 53.5909 25.4667 53.8244 24.7635C54.058 24.0604 56.7048 17.8101 57.2497 15.935C57.7946 14.0599 56.8605 12.8099 54.2915 13.6693C51.7226 14.5287 48.8221 17.192 46.0399 21.3259Z" fill="#13B258"/>
<path d="M32.8057 0.153035C25.7093 0.698839 22.8696 1.4697 19.2605 3.43446C19.5461 3.34573 19.8591 3.27608 20.1945 3.22368C22.649 2.84023 26.3036 3.38127 29.2248 4.13194C30.473 4.45271 31.5872 4.81175 32.4167 5.15329C33.3781 5.54915 34.5581 6.32893 35.7639 7.26933C38.3658 9.2985 41.0877 12.0755 41.9919 13.3568C41.4799 11.3769 41.3396 10.2996 41.6803 8.51279C42.1773 6.32238 43.2372 4.60638 43.9379 3.66882C44.6385 2.73126 45.1056 1.87184 43.9379 1.09058C42.7701 0.309313 37.8368 -0.295374 32.8057 0.153035Z" fill="#13B258"/>
<path d="M29.2248 38.2798C33.3506 38.436 35.6082 37.6548 35.7639 34.6859C35.8933 32.218 33.9787 30.4519 31.0931 29.7017C30.5073 29.5495 29.8816 29.439 29.2248 29.3731C27.2843 29.1784 25.8082 29.3331 24.7096 29.9052C23.6045 30.4806 22.8815 31.4782 22.4521 32.967C22.2502 33.667 22.2906 34.3235 22.5244 34.9203C23.2822 36.8545 26.0716 38.1604 29.2248 38.2798Z" fill="#13B258"/>
</svg>
