<svg width="63" height="54" viewBox="0 0 63 54" fill="none" xmlns="http://www.w3.org/2000/svg">
<path d="M50.6975 28.6513C50.7792 28.3642 50.7873 27.8567 50.8037 27.4716C50.8073 27.3863 50.8114 27.307 50.8167 27.2374C50.8264 27.0321 50.7952 26.711 50.7974 26.4889C50.788 26.0101 50.6848 25.8982 50.58 25.4077C50.135 23.9251 48.7649 21.9147 46.3184 21.9979C43.8719 22.0811 41.9779 24.4097 42.2146 27.0711C42.4514 29.7324 43.5889 31.0856 46.3184 31.6453C47.4109 31.6818 48.2914 31.6453 48.9889 31.1725C49.6849 30.6136 50.0267 30.2772 50.25 29.8886C50.4359 29.5651 50.5397 29.2055 50.6975 28.6513Z" fill="black"/>
<path d="M45.0557 19.0871C40.873 18.5881 38.1898 22.8296 38.1898 25.7404C38.1898 28.6513 39.7682 32.9759 43.5562 33.2254C45.9551 33.3834 47.7526 32.6076 48.9889 31.1725C48.2914 31.6453 47.4109 31.6818 46.3184 31.6453C43.5889 31.0856 42.4514 29.7324 42.2146 27.0711C41.9779 24.4097 43.8719 22.0811 46.3184 21.9979C48.7649 21.9147 50.135 23.9251 50.58 25.4077C49.9974 22.6829 48.022 19.4409 45.0557 19.0871Z" fill="white"/>
<path d="M19.0126 42.7065C16.9697 46.1785 16.1716 48.3618 16.9607 50.5242C17.7499 52.6865 19.3283 53.6014 21.4591 53.5182C23.5899 53.435 25.0012 52.0043 27.6936 49.3598C30.8645 44.8721 30.9293 42.7065 30.3769 40.7105C29.8244 38.7145 27.0623 36.7185 24.6158 37.5501C22.1694 38.3818 20.8624 39.5084 19.0126 42.7065Z" fill="#FFE7B8"/>
<path fill-rule="evenodd" clip-rule="evenodd" d="M14.2775 22.9959C12.6866 26.0645 11.9184 27.8349 12.3834 31.7284C12.8326 34.8265 13.5294 36.2381 14.8299 38.7144L19.0126 42.7065C20.8624 39.5084 22.1694 38.3818 24.6158 37.5501C27.0623 36.7185 29.8244 38.7145 30.3769 40.7105C30.9293 42.7065 30.8645 44.8721 27.6936 49.3598C33.7236 51.8974 37.2216 52.133 43.6352 50.8568C48.14 49.7479 50.2549 48.574 53.8156 46.1995C57.2231 43.1992 58.4196 41.5546 60.3659 38.6313C55.9987 39.2458 54.0159 38.5315 51.4481 35.0551L52.0005 34.0571C55.2362 37.3948 57.281 37.8105 61.155 37.1343C62.2085 34.664 62.4252 33.4965 62.4177 31.6453C62.1824 29.1969 61.2415 28.6568 58.6297 28.6513C56.893 19.8374 54.2743 16.5721 48.6859 11.6852C45.6002 9.52427 43.7425 8.64526 40.0049 8.19219C36.0993 8.30033 34.0405 8.54972 30.8504 9.6892C27.2285 11.1505 25.5993 11.9083 23.7477 13.099C18.9666 16.514 16.8655 18.6734 14.2775 22.9959ZM30.8504 27.7364C32.2397 22.5533 33.3662 20.8407 35.2698 17.4237C33.6973 21.3828 32.7435 23.5825 31.8763 27.7364C31.6196 30.2953 31.6008 31.621 31.8763 33.7244C33.1949 39.1231 34.4911 41.7569 37.1639 46.1995C33.5664 42.6891 32.0438 40.0934 30.6925 33.7244C30.4952 30.3399 30.5822 29.24 30.8504 27.7364ZM38.1898 25.7404C38.1898 22.8296 40.873 18.5881 45.0557 19.0871C48.022 19.4409 49.9974 22.6829 50.58 25.4077C50.7081 25.8346 50.8078 25.9385 50.7974 26.4889C50.8276 26.7224 50.838 26.9603 50.8167 27.2374C50.813 27.317 50.8087 27.3951 50.8037 27.4716C50.7873 27.8567 50.7792 28.3642 50.6975 28.6513C50.5397 29.2055 50.4359 29.5651 50.25 29.8886C49.9437 30.4837 49.5205 30.874 48.9889 31.1725C47.7526 32.6076 45.9551 33.3834 43.5562 33.2254C39.7682 32.9759 38.1898 28.6513 38.1898 25.7404Z" fill="#F8CE37"/>
<path d="M35.2698 17.4237C33.3662 20.8407 32.2397 22.5533 30.8504 27.7364C30.5822 29.24 30.4952 30.3399 30.6925 33.7244C32.0438 40.0934 33.5664 42.6891 37.1639 46.1995C34.4911 41.7569 33.1949 39.1231 31.8763 33.7244C31.6008 31.621 31.6196 30.2953 31.8763 27.7364C32.7435 23.5825 33.6973 21.3828 35.2698 17.4237Z" fill="#3A2F33"/>
<path d="M60.3659 38.6313L61.155 37.1343C57.281 37.8105 55.2362 37.3948 52.0005 34.0571L51.4481 35.0551C54.0159 38.5315 55.9987 39.2458 60.3659 38.6313Z" fill="#E67B18"/>
<path d="M30.8504 9.6892C34.0405 8.54972 36.0993 8.30033 40.0049 8.19219C35.9689 3.70817 33.2567 1.81035 27.0623 0.291333C23.4029 -0.201478 21.8428 -0.17449 21.2223 1.20617C20.7887 2.65675 20.9536 3.58243 22.3272 5.53085C23.3702 6.80304 23.721 7.49195 24.0634 8.6912C24.1153 10.4668 24.0549 11.4342 23.7477 13.099C25.5993 11.9083 27.2285 11.1505 30.8504 9.6892Z" fill="#FBDEA4"/>
<path d="M0.0721714 16.7584C-0.401297 19.9187 1.53009 26.2292 5.43862 31.7284C1.64096 36.9042 -0.421109 39.8068 0.0721714 45.0351C0.526706 48.1175 1.91019 48.6986 4.80728 47.6965C8.87365 45.5849 11.0326 43.2912 14.8299 38.7144C13.5294 36.2381 12.8326 34.8265 12.3834 31.7284C11.9184 27.8349 12.6866 26.0645 14.2775 22.9959C10.3904 18.6929 7.56946 15.3445 4.80728 14.0139C2.04509 12.6832 0.54564 13.598 0.0721714 16.7584Z" fill="#FBDEA4"/>
</svg>
