<svg width="291" height="215" viewBox="0 0 291 215" fill="none" xmlns="http://www.w3.org/2000/svg">
<path d="M132.57 175.849C130.789 172.921 131.856 170.426 132.57 169.57H134.201C135.191 172.372 134.472 174.924 133.989 175.849H132.57Z" fill="#313130"/>
<path d="M142.443 193.661C140.662 190.732 141.728 188.237 142.443 187.382H144.073C145.063 190.183 144.345 192.735 143.862 193.661H142.443Z" fill="#313130"/>
<path d="M142.201 156.378C140.42 153.449 141.487 150.954 142.201 150.098H143.832C144.822 152.9 144.103 155.452 143.62 156.378H142.201Z" fill="#313130"/>
<path d="M142.413 175.849C140.631 172.921 141.698 170.426 142.413 169.57H144.043C145.033 172.372 144.315 174.924 143.832 175.849H142.413Z" fill="#313130"/>
<path d="M54.6471 138.657C52.8658 135.729 53.9324 133.233 54.6471 132.378H56.2774C57.2677 135.179 56.5491 137.731 56.066 138.657H54.6471Z" fill="#313230"/>
<path d="M57.1982 157.374C55.4169 154.446 56.4835 151.95 57.1982 151.095H58.8285C59.8188 153.896 59.1002 156.448 58.6171 157.374H57.1982Z" fill="#262724"/>
<path d="M59.6588 175.155C57.8775 172.227 58.9441 169.731 59.6588 168.876H61.2891C62.2794 171.677 61.5608 174.229 61.0778 175.155H59.6588Z" fill="#272825"/>
<path d="M282.56 124.046C280.779 121.117 281.845 118.622 282.56 117.766H284.19C285.18 120.568 284.462 123.12 283.979 124.046H282.56Z" fill="#313130"/>
<path d="M280.498 141.585C278.717 138.657 279.784 136.161 280.498 135.306H282.129C283.119 138.107 282.4 140.659 281.917 141.585H280.498Z" fill="#313130"/>
<path d="M278.424 157.706C276.642 154.778 277.709 152.282 278.424 151.427H280.054C281.044 154.228 280.326 156.78 279.843 157.706H278.424Z" fill="#313130"/>
<path d="M132.148 156.378C130.366 153.449 131.433 150.954 132.148 150.098H133.778C134.768 152.9 134.05 155.452 133.567 156.378H132.148Z" fill="#2D2E2C"/>
<path d="M139.031 198.461L139.816 214.25L281.917 174.642L283.647 159.88L273.623 162.554L147.364 196.238L139.031 198.461Z" fill="#BB8755"/>
<path d="M59.8399 197.404L139.816 214.25L139.031 198.461L128.887 196.27L65.7574 182.634L57.4095 180.831L59.8399 197.404Z" fill="#74461E"/>
<path d="M147.364 196.238L273.623 162.554L274.835 151.427L147.283 182.31L147.364 196.238Z" fill="#995718"/>
<path d="M147.264 179.14L275.209 147.985L276.783 133.525L147.184 165.344L147.264 179.14Z" fill="#995418"/>
<path d="M279.058 112.634L238.269 122.506L237.001 135.638L207.988 142.34V129.781L147.062 144.363L147.163 161.721L277.191 129.781L279.058 112.634Z" fill="#955318"/>
<path d="M220.668 132.559L225.831 131.713V124.227C227.209 122.888 229.14 119.535 225.831 116.83C224.781 115.623 223.582 116.327 223.114 116.83C220.433 120.236 221.996 123.18 223.114 124.227L220.668 132.559Z" fill="#4C4C4C"/>
<path fill-rule="evenodd" clip-rule="evenodd" d="M237.001 135.638L238.269 122.506L240.202 107.317L207.988 115.267V129.781V142.34L237.001 135.638ZM225.831 131.713L220.668 132.559L223.114 124.227C221.996 123.18 220.433 120.236 223.114 116.83C223.582 116.327 224.781 115.623 225.831 116.83C229.14 119.535 227.209 122.888 225.831 124.227V131.713Z" fill="#A1A3A2"/>
<path d="M137.793 132.589V146.355L147.062 144.363L207.988 129.781V115.267L137.793 132.589Z" fill="#BB8757"/>
<path d="M289.039 110.249L290.711 94.853L240.202 107.317L238.269 122.506L279.058 112.634L289.039 110.249Z" fill="#CA9362"/>
<path d="M47.6125 114.023L49.587 127.487L59.9607 129.706L126.955 144.037L137.793 146.355V132.589L47.6125 111.487V114.023Z" fill="#724820"/>
<path d="M126.955 144.037L59.9607 129.706L61.5725 144.423L127.55 160.121L126.955 144.037Z" fill="#552602"/>
<path d="M127.667 163.291L61.8304 146.778L63.7939 164.706L128.317 180.861L127.667 163.291Z" fill="#592701"/>
<path d="M65.7574 182.634L128.887 196.27L128.422 183.699L64.0357 166.914L65.7574 182.634Z" fill="#5A2802"/>
<path d="M128.317 180.861L63.7939 164.706L64.0357 166.914L128.422 183.699L128.317 180.861Z" fill="#3B1700"/>
<path d="M127.55 160.121L61.5725 144.423L61.8304 146.778L127.667 163.291L127.55 160.121Z" fill="#341405"/>
<path d="M147.184 165.344L276.783 133.525L277.191 129.781L147.163 161.721L147.184 165.344Z" fill="#90380A"/>
<path d="M147.283 182.31L274.835 151.427L275.209 147.985L147.264 179.14L147.283 182.31Z" fill="#8E3606"/>
<path fill-rule="evenodd" clip-rule="evenodd" d="M137.793 146.355L139.031 198.461L147.364 196.238L147.283 182.31L147.264 179.14L147.184 165.344L147.163 161.721L147.062 144.363L137.793 146.355ZM142.443 193.661C140.662 190.732 141.728 188.237 142.443 187.382H144.073C145.063 190.183 144.345 192.735 143.862 193.661H142.443ZM142.201 156.378C140.42 153.449 141.487 150.954 142.201 150.098H143.832C144.822 152.9 144.103 155.452 143.62 156.378H142.201ZM142.413 175.849C140.631 172.921 141.698 170.426 142.413 169.57H144.043C145.033 172.372 144.315 174.924 143.832 175.849H142.413Z" fill="#C1C1C0"/>
<path fill-rule="evenodd" clip-rule="evenodd" d="M139.031 198.461L137.793 146.355L126.955 144.037L127.55 160.121L127.667 163.291L128.317 180.861L128.422 183.699L128.887 196.27L139.031 198.461ZM132.57 175.849C130.789 172.921 131.856 170.426 132.57 169.57H134.201C135.191 172.372 134.472 174.924 133.989 175.849H132.57ZM132.57 193.932C130.789 191.004 131.856 188.509 132.57 187.653H134.201C135.191 190.455 134.472 193.007 133.989 193.932H132.57ZM132.148 156.378C130.366 153.449 131.433 150.954 132.148 150.098H133.778C134.768 152.9 134.05 155.452 133.567 156.378H132.148Z" fill="#4D4D4B"/>
<path fill-rule="evenodd" clip-rule="evenodd" d="M49.587 127.487L57.4095 180.831L65.7574 182.634L64.0357 166.914L63.7939 164.706L61.8304 146.778L61.5725 144.423L59.9607 129.706L49.587 127.487ZM54.6471 138.657C52.8658 135.729 53.9324 133.233 54.6471 132.378H56.2774C57.2677 135.179 56.5491 137.731 56.066 138.657H54.6471ZM57.1982 157.374C55.4169 154.446 56.4835 151.95 57.1982 151.095H58.8285C59.8188 153.896 59.1002 156.448 58.6171 157.374H57.1982ZM59.6588 175.155C57.8775 172.227 58.9441 169.731 59.6588 168.876H61.2891C62.2794 171.677 61.5608 174.229 61.0778 175.155H59.6588Z" fill="#4D4D4D"/>
<path d="M132.57 187.653C131.856 188.509 130.789 191.004 132.57 193.932H133.989C134.472 193.007 135.191 190.455 134.201 187.653H132.57Z" fill="#2D2E2C"/>
<path fill-rule="evenodd" clip-rule="evenodd" d="M273.623 162.554L283.647 159.88L289.039 110.249L279.058 112.634L277.191 129.781L276.783 133.525L275.209 147.985L274.835 151.427L273.623 162.554ZM282.56 124.046C280.779 121.117 281.845 118.622 282.56 117.766H284.19C285.18 120.568 284.462 123.12 283.979 124.046H282.56ZM280.498 141.585C278.717 138.657 279.784 136.161 280.498 135.306H282.129C283.119 138.107 282.4 140.659 281.917 141.585H280.498ZM278.424 157.706C276.642 154.778 277.709 152.282 278.424 151.427H280.054C281.044 154.228 280.326 156.78 279.843 157.706H278.424Z" fill="#BFC3C4"/>
<path d="M47.6125 111.487L137.793 132.589L207.988 115.267L240.202 107.317L290.711 94.853L278.243 93.736L277.125 94.003L219.521 107.772L216.955 108.385L197.179 113.112L195.66 113.475L175.019 118.408L166.535 120.436L137.793 127.306L91.7821 116.876L79.283 114.043L71.8258 112.353L59.8399 109.636L52.9564 108.076L47.6125 111.487Z" fill="#F0D6BF"/>
<path d="M47.6125 111.487L52.9564 108.076L47.6125 93.5789L46.5799 90.7775L37.2544 65.4794L36.3196 62.9435L27.6507 39.4265L26.7494 36.9812L18.8706 15.6076L172.694 3.44152L195.67 58.9586H199.081L176.106 0L12.4097 11.7132L47.6125 111.487Z" fill="#797778"/>
<path fill-rule="evenodd" clip-rule="evenodd" d="M47.6125 114.023V111.487L12.4097 11.7132C-21.3802 64.9903 21.7689 102.581 47.6125 114.023ZM11.1114 28.6491L40.2157 102.31C38.5918 101.67 37.043 100.983 35.5663 100.251C34.3505 99.6492 33.1837 99.0174 32.0641 98.3579C9.2256 84.9069 6.03073 59.9673 8.32001 41.6907C8.52787 40.0312 8.78095 38.4267 9.06863 36.8906C9.64054 33.8371 10.3492 31.0543 11.1114 28.6491Z" fill="#4D4D4F"/>
<path d="M40.2157 102.31L11.1114 28.6491C10.3492 31.0543 9.64054 33.8371 9.06863 36.8906L35.5663 100.251C37.043 100.983 38.5918 101.67 40.2157 102.31Z" fill="#582700"/>
<path d="M32.0641 98.3579C9.2256 84.9069 6.03073 59.9673 8.32001 41.6907L32.0641 98.3579Z" fill="#562801"/>
<path d="M8.32001 41.6907L32.0641 98.3579C33.1837 99.0174 34.3505 99.6492 35.5663 100.251L9.06863 36.8906C8.78095 38.4267 8.52787 40.0312 8.32001 41.6907Z" fill="#2D1100"/>
<path d="M172.694 3.44152L18.8706 15.6076L26.7494 36.9812L161.222 25.9019C162.043 22.1102 164.885 16.1309 166.203 13.6151L167.622 11.0491L172.694 3.44152Z" fill="#4A2103"/>
<path d="M161.222 25.9019L26.7494 36.9812L27.6507 39.4265L161.222 28.2869V25.9019Z" fill="#321301"/>
<path d="M161.222 28.2869L27.6507 39.4265L36.3196 62.9435L162.158 46.8227C159.525 42.065 160.437 32.4831 161.222 28.2869Z" fill="#5A2803"/>
<path d="M162.158 46.8227L36.3196 62.9435L37.2544 65.4794L162.731 49.419L162.158 46.8227Z" fill="#2F1202"/>
<path d="M162.731 49.419L37.2544 65.4794L46.5799 90.7775L91.0877 82.346L97.5185 81.1278L171.517 67.1096C168.28 63.9216 164.311 53.9875 162.731 49.419Z" fill="#663703"/>
<path d="M46.5799 90.7775L47.6125 93.5789L85.6533 86.0523L89.397 84.7096L91.0877 82.346L46.5799 90.7775Z" fill="#462302"/>
<path d="M173.57 69.1624L171.517 67.1096L97.5185 81.1278L96.5221 85.0115L100.93 82.8379L110.229 79.4266L125.023 78.6115L173.57 69.1624Z" fill="#432405"/>
<path d="M47.6125 93.5789L52.9564 108.076L59.8399 109.636L72.5202 101.404L72.3391 100.136L72.5202 98.6568L73.3957 97.2983L74.7845 95.6077L83.5702 87.7889L85.6533 86.0523L47.6125 93.5789Z" fill="#6A3707"/>
<path d="M96.5221 85.0115L97.5185 81.1278L91.0877 82.346L89.397 84.7096L91.6614 94.6417L92.9596 92.3172L96.5221 85.0115Z" fill="#FC834C"/>
<path d="M89.397 84.7096L85.6533 86.0523L83.5702 87.7889L74.7845 95.6077L73.3957 97.2983L72.5202 98.6568L72.3391 100.136L72.5202 101.404L73.3957 101.947L74.7845 102.43L76.2941 103.095L78.5282 103.215L82.3927 101.615L89.397 97.2983L91.6614 94.6417L89.397 84.7096Z" fill="#B80508"/>
<path d="M125.023 78.6115L110.229 79.4266L100.93 82.8379L96.5221 85.0115L92.9596 92.3172L91.6614 94.6417L89.397 97.2983L82.3927 101.615L78.5282 103.215L76.2941 103.095L74.7845 102.43L73.3957 101.947L72.5202 101.404L59.8399 109.636L71.8258 112.353L78.5282 107.985L84.4457 105.027L92.4161 99.2908L101.353 92.287L108.931 86.7323L113.007 83.653L121.702 82.053L130.185 81.6304L140.299 82.687L147.394 84.7096L153.07 87.9398L157.418 91.8342L162.611 92.6493L174.445 94.4908L182.657 95.6077L191.896 97.4795L201.738 100.257L211.852 104.846L216.955 108.385L219.521 107.772L213.724 103.336L207.173 100.257L195.187 96.121L183.352 92.6493L182.461 92.4681L181.571 92.287L161.554 87.2153L152.285 84.2568L149.568 83.3813C143.852 81.6555 130.94 78.2854 125.023 78.6115Z" fill="#FFE627"/>
<path d="M175.019 118.408L169.222 114.295L165.177 115.683L162.611 116.589L161.192 117.766V118.408L161.554 119.064L163.154 119.457L164.784 120L166.535 120.436L175.019 118.408Z" fill="#F7BB1A"/>
<path d="M140.299 121.057H132.54L133.627 122.989L135.197 123.381L137.703 124.106H139.937L143.952 122.989L148.632 120.785L154.791 117.766L157.418 117.283V114.838L153.07 112.785L150.594 111.578H148.36L149.689 113.117V114.566L149.357 116.589L148.36 117.766L146.187 119.064L143.439 120L140.299 121.057Z" fill="#F9BF1D"/>
<path d="M132.54 121.057H131.725L125.475 115.795L123.453 116.589L118.199 117.283V118.408L119.135 119.064L121.702 120L125.989 121.63H128.766L130.608 121.872L132.54 121.057Z" fill="#F8BE1E"/>
<path d="M106.304 111.276L103.376 113.751L101.806 114.355H98.9978L96.5523 113.419L93.5634 112.513L92.4161 111.608L92.6879 109.555L85.6533 110.249L79.283 111.276V114.043L91.7821 116.876L98.5148 116.981L103.768 117.283L109.685 116.589L114.305 116.076L117.022 114.959L118.622 113.751V112.604L117.988 111.276L113.007 107.381L110.772 108.438L108.931 109.132L107.723 110.159L106.304 111.276Z" fill="#F8BC1D"/>
<path d="M187.88 87.2153L183.352 92.6493L195.187 96.121L207.173 100.257L213.724 103.336L219.521 107.772L277.125 94.003L274.257 92.77L271.087 91.5926L259.071 91.0794L255.267 90.2035L250.074 88.453L244.881 84.8907L240.443 81.4492L235.099 78.1587L229.061 75.653L225.378 74.3247L221.846 73.7511L219.083 73.6454L220.427 74.3247L221.846 74.9857L227.944 77.8266L232.08 80.7549L234.073 83.1096L234.336 83.653L235.945 86.9738L236.367 89.57L235.668 90.2035L238.873 90.687L241.289 91.0794L242.436 92.77L241.711 94.1587L238.269 95.6077L235.099 96.121H203.61L200.168 95.6077L198.508 94.853L197.602 93.7059L198.025 92.1964L200.682 90.687L203.61 89.57L207.173 88.3624L211.611 87.9096L215.777 87.5819L214.781 86.1587L211.852 82.6197L208.41 78.4605L207.897 77.4341L208.41 76.0153L209.678 74.7473L211.852 73.7511L212.666 73.4798L214.207 72.9662L215.777 72.6643H208.41L201.738 72.9662L194.07 75.2605L187.88 77.8266L180.272 80.9664L181.872 81.3285L185.254 82.4153L188.213 84.2568L188.484 86.0379L187.88 87.2153Z" fill="#FABC19"/>
<path d="M223.234 92.77L218.585 91.5926L215.777 87.5819L211.611 87.9096L207.173 88.3624L203.61 89.57L200.682 90.687L198.025 92.1964L197.602 93.7059L198.508 94.853L200.168 95.6077L203.61 96.121H235.099L238.269 95.6077L241.711 94.1587L242.436 92.77L241.289 91.0794L238.873 90.687L235.668 90.2035L232.835 92.77L230.419 93.4972L229.725 93.7059L223.234 92.77Z" fill="#EF9A01"/>
<path d="M189.118 69.1624L187.337 70.4605L178.884 74.1435C173.469 76.7599 160.026 82.2704 149.568 83.3813L152.285 84.2568L161.554 87.2153L167.519 82.4153L170.37 80.1209L171.577 79.8794H174.959L177.736 80.3926L179.004 80.6795L180.272 80.9664L187.88 77.8266L194.07 75.2605L201.738 72.9662L208.41 72.6643H215.777L217.74 72.9662L219.083 73.6454L221.846 73.7511L225.378 74.3247L229.061 75.653L235.099 78.1587L240.443 81.4492L244.881 84.8907L250.074 88.453L255.267 90.2035L259.071 91.0794L271.087 91.5926L274.257 92.77L277.125 94.003L278.243 93.736L269.789 87.7587L260.007 82.2945L259.071 82.5058L257.894 81.8115L251.705 78.1587L243.493 72.5134L234.073 65.6605L232.08 64.5737H229.061L226.978 65.3888L220.004 66.4454H209.105L202.131 67.1096L198.025 67.7737L189.722 69.9473L189.118 69.1624Z" fill="#FFE324"/>
<path d="M173.57 69.1624L125.023 78.6115C130.94 78.2854 143.852 81.6555 149.568 83.3813C160.026 82.2704 173.469 76.7599 178.884 74.1435L173.57 69.1624Z" fill="#6D3703"/>
<path d="M161.222 25.9019V28.2869C160.437 32.4831 159.525 42.065 162.158 46.8227L162.731 49.419C164.311 53.9875 168.28 63.9216 171.517 67.1096L173.57 69.1624L178.884 74.1435L187.337 70.4605L166.203 13.6151C164.885 16.1309 162.043 22.1102 161.222 25.9019Z" fill="#7D410D"/>
<path d="M166.203 13.6151L187.337 70.4605L189.118 69.1624L188.873 68.4983L167.622 11.0491L166.203 13.6151Z" fill="#582600"/>
<path d="M195.67 58.9586L172.694 3.44152L167.622 11.0491L188.873 68.4983L194.613 59.1699L195.67 58.9586Z" fill="#80430E"/>
<path d="M260.007 82.2945L259.584 77.8266L257.622 73.6605L253.048 67.2454L252.911 73.4798L255.417 80.3497L257.894 81.8115L259.071 82.5058L260.007 82.2945Z" fill="#B80C0A"/>
<path d="M251.705 78.1587L255.417 80.3497L252.911 73.4798L248.474 72.0303L251.705 78.1587Z" fill="#FC4111"/>
<path d="M236.367 89.57L235.945 86.9738L234.336 83.653H226.978L230.419 87.9096V93.4972L232.835 92.77L235.668 90.2035L236.367 89.57Z" fill="#5F0A05"/>
<path d="M211.852 73.7511L209.678 74.7473L208.41 76.0153L207.897 77.4341L208.41 78.4605L211.852 82.6197H213.724L216.319 83.1096L219.521 84.2568L222.539 86.1587L225.831 88.3624L228.607 91.0794L229.725 93.7059L230.419 93.4972V87.9096L226.978 83.653L223.867 80.7549L219.521 78.4605L221.846 74.9857L217.74 72.9662L215.777 72.6643L212.666 73.4798L211.852 73.7511Z" fill="#BE170F"/>
<path d="M234.073 83.1096L232.08 80.7549L227.944 77.8266L221.846 74.9857L219.521 78.4605L223.867 80.7549L226.978 83.653H234.336L234.073 83.1096Z" fill="#FF4208"/>
<path d="M218.585 91.5926L223.234 92.77L229.725 93.7059L226.162 90.8379L221.846 87.9096L218.585 86.0379L215.323 84.2568L211.852 82.6197L214.781 86.1587L215.777 87.5819L218.585 91.5926Z" fill="#6D0504"/>
<path d="M226.162 90.8379L229.725 93.7059L228.607 91.0794L225.831 88.3624L222.539 86.1587L219.521 84.2568L216.319 83.1096L213.724 82.6197H211.852L215.323 84.2568L218.585 86.0379L221.846 87.9096L226.162 90.8379Z" fill="#F84113"/>
<path d="M209.709 61.253L207.746 59.5624L205.723 58.9586H202.402L196.938 64.5737H203.61L209.814 63.1096L209.709 61.253Z" fill="#B80602"/>
<path d="M199.081 58.9586H195.67L194.613 59.1699L188.873 68.4983L189.118 69.1624L189.722 69.9473L198.025 67.7737L202.131 67.1096L209.105 66.4454L209.92 64.9662L209.814 63.1096L203.61 64.5737H196.938L202.402 58.9586H199.081Z" fill="#760604"/>
<path d="M188.213 84.2568L185.254 82.4153L181.872 81.3285L180.272 80.9664L179.004 80.6795L179.879 85.6455L181.571 86.8228L183.352 86.4606L188.213 84.2568Z" fill="#FF4502"/>
<path d="M183.352 92.6493L187.88 87.2153L188.484 86.0379L188.213 84.2568L183.352 86.4606L181.571 86.8228L182.461 92.4681L183.352 92.6493Z" fill="#B60409"/>
<path d="M177.736 80.3926L174.959 79.8794H171.577L170.37 80.1209L167.519 82.4153L173.57 83.2606L179.879 85.6455L179.004 80.6795L177.736 80.3926Z" fill="#BF0208"/>
<path d="M161.554 87.2153L181.571 92.287L182.461 92.4681L181.571 86.8228L179.879 85.6455L173.57 83.2606L167.519 82.4153L161.554 87.2153Z" fill="#710604"/>
<path d="M143.62 92.287L142.232 90.8681L140.994 90.0677L137.703 87.9398L135.061 86.6568L129.731 87.487L125.324 88.8237L129.731 94.1285L143.439 94.827L143.62 94.6417L143.952 93.3436L143.62 92.287Z" fill="#B60308"/>
<path d="M127.136 84.1058L123.936 85.0719L122.757 85.7333L125.324 88.8237L129.731 87.487L135.061 86.6568L132.419 85.3738L129.189 84.1058H127.136Z" fill="#FF4203"/>
<path d="M140.333 97.4795L140.994 97.3285L143.439 94.827L129.731 94.1285H126.199L130.608 94.3398L140.333 97.4795Z" fill="#FD4203"/>
<path d="M133.265 97.8115H138.88L140.333 97.4795L130.608 94.3398L126.199 94.1285L127.74 97.4795L133.265 97.8115Z" fill="#4F120A"/>
<path d="M120.977 86.7323L119.135 88.1734L125.989 94.1285H126.199H129.731L125.324 88.8237L122.757 85.7333L120.977 86.7323Z" fill="#700402"/>
<path d="M125.324 96.8455L127.74 97.4795L126.199 94.1285H125.989L119.135 88.1734L118.199 88.9058L118.411 90.2643L121.52 93.1323L125.324 96.8455Z" fill="#BA0906"/>
<path d="M149.357 116.589L149.689 114.566V113.117L148.36 111.578L146.79 110.249L145.371 109.374L144.103 108.559L142.111 107.442L140.299 106.446L132.54 110.672L143.439 112.091L149.357 116.589Z" fill="#B91013"/>
<path d="M140.299 106.446L138.488 105.751L136.435 105.027L134.804 104.302L133.265 104L131.936 103.94L130.185 104L128.766 104.302L127.196 105.027L125.475 105.993L123.453 107.019L121.702 107.985L124.238 110.672H132.54L140.299 106.446Z" fill="#F58751"/>
<path d="M140.299 121.057L125.021 112.091L143.439 120L146.187 119.064L148.36 117.766L149.357 116.589L143.439 112.091L132.54 110.672H124.238L121.702 107.985L118.35 109.796L125.475 115.795L131.725 121.057H132.54H140.299Z" fill="#7E1E1D"/>
<path d="M140.299 121.057L143.439 120L125.021 112.091L140.299 121.057Z" fill="#920B1B"/>
<path d="M113.761 100.076L112.342 99.0795L111.074 98.5662L108.327 98.3247H104.553L102.5 99.2908L99.9035 100.257L98.1525 101.585L97.1562 103.608L95.9485 105.359L94.5597 107.019L92.6879 109.555L100.93 109.132L104.553 108.076L107.723 106.325L109.685 104.846L113.761 100.076Z" fill="#710405"/>
<path d="M103.376 113.751L106.304 111.276L107.723 110.159L108.931 109.132L110.772 108.438L113.007 107.381L114.305 106.627L114.969 105.721L109.685 104.846L107.723 106.325L104.553 108.076L100.93 109.132L92.6879 109.555L92.4161 111.608L93.5634 112.513L96.5523 113.419L98.9978 114.355H101.806L103.376 113.751Z" fill="#B60407"/>
<path d="M114.969 105.721V101.585L113.761 100.076L109.685 104.846L114.969 105.721Z" fill="#BE0709"/>
<path d="M217.74 72.9662L215.777 72.6643L214.207 72.9662L212.666 73.4798L215.777 72.6643L217.74 72.9662L221.846 74.9857L220.427 74.3247L219.083 73.6454L217.74 72.9662Z" fill="#FFD6C8"/>
<path d="M175.019 104.393L169.222 111.215V114.295L175.019 118.408L195.66 113.475L191.896 110.249L184.045 107.772L183.352 104.091L181.087 103.336H178.702L175.804 103.608L175.019 104.393Z" fill="#52090C"/>
<path d="M197.179 113.112L196.938 111.487L193.587 108.649L188.967 106.325L186.009 104.846L183.352 104.091L184.045 107.772L191.896 110.249L195.66 113.475L197.179 113.112Z" fill="#FF703D"/>
<path fill-rule="evenodd" clip-rule="evenodd" d="M114.305 106.627L113.007 107.381L117.988 111.276L118.622 112.604V113.751L117.022 114.959L114.305 116.076L109.685 116.589L103.768 117.283L98.5148 116.981L91.7821 116.876L137.793 127.306L166.535 120.436L164.784 120L163.154 119.457L161.554 119.064L161.192 118.408V117.766L162.611 116.589L165.177 115.683L169.222 114.295V111.215L175.019 104.393L175.804 103.608L178.702 103.336H181.087L183.352 104.091L186.009 104.846L188.967 106.325L193.587 108.649L196.938 111.487L197.179 113.112L216.955 108.385L211.852 104.846L201.738 100.257L191.896 97.4795L182.657 95.6077L174.445 94.4908L162.611 92.6493L157.418 91.8342L153.07 87.9398L147.394 84.7096L140.299 82.687L130.185 81.6304L121.702 82.053L113.007 83.653L108.931 86.7323L101.353 92.287L92.4161 99.2908L84.4457 105.027L78.5282 107.985L71.8258 112.353L79.283 114.043V111.276L85.6533 110.249L92.6879 109.555L94.5597 107.019L95.9485 105.359L97.1562 103.608L98.1525 101.585L99.9035 100.257L102.5 99.2908L104.553 98.3247H108.327L111.074 98.5662L112.342 99.0795L113.761 100.076L114.969 101.585V105.721L114.305 106.627ZM146.79 110.249L148.36 111.578H150.594L153.07 112.785L157.418 114.838V117.283L154.791 117.766L148.632 120.785L143.952 122.989L139.937 124.106H137.703L135.197 123.381L133.627 122.989L132.54 121.057L130.608 121.872L128.766 121.63H125.989L121.702 120L119.135 119.064L118.199 118.408V117.283L123.453 116.589L125.475 115.795L118.35 109.796L121.702 107.985L123.453 107.019L125.475 105.993L127.196 105.027L128.766 104.302L130.185 104L131.936 103.94L133.265 104L134.804 104.302L136.435 105.027L138.488 105.751L140.299 106.446L142.111 107.442L144.103 108.559L145.371 109.374L146.79 110.249ZM123.936 85.0719L127.136 84.1058H129.189L132.419 85.3738L135.061 86.6568L137.703 87.9398L140.994 90.0677L145.703 90.8681L148.964 92.287L152.285 93.7964L156.844 96.1813L158.746 97.4795V99.4417L156.844 100.498H148.36L143.62 99.4417L138.88 98.5662H130.185L127.74 99.0795H120.222L115.694 97.8115L112.342 96.1813L111.92 95.3964L112.342 94.6417L116.358 93.1323L120.449 92.1445L118.411 90.2643L118.199 88.9058L119.135 88.1734L120.977 86.7323L122.757 85.7333L123.936 85.0719Z" fill="#FBCA24"/>
<path d="M142.232 90.8681L143.62 92.287L143.952 93.3436L143.62 94.6417L143.439 94.827L140.994 97.3285L140.333 97.4795L138.88 97.8115H133.265L127.74 97.4795L125.324 96.8455L121.52 93.1323L120.449 92.1445L116.358 93.1323L112.342 94.6417L111.92 95.3964L112.342 96.1813L115.694 97.8115L120.222 99.0795H127.74L130.185 98.5662H138.88L143.62 99.4417L148.36 100.498H156.844L158.746 99.4417V97.4795L156.844 96.1813L152.285 93.7964L148.964 92.287L145.703 90.8681L140.994 90.0677L142.232 90.8681Z" fill="#F8BC1F"/>
<path fill-rule="evenodd" clip-rule="evenodd" d="M246.934 59.0492L248.474 60.8303L253.048 67.2454L252.911 73.4798L248.474 72.0303L245.615 69.83L244.054 67.0993L243.352 65.3828L242.436 64.5737L241.289 63.7888L244.61 60.4681L245.787 59.0492H246.934Z" fill="#95433F"/>
<path d="M241.289 63.7888V67.3813L242.436 69.5851L243.493 72.5134L251.705 78.1587L248.474 72.0303L245.615 69.83L244.054 67.0993L243.352 65.3828L242.436 64.5737L241.289 63.7888Z" fill="#BE170F"/>
</svg>
