<svg width="74" height="54" viewBox="0 0 74 54" fill="none" xmlns="http://www.w3.org/2000/svg">
<path d="M33.0419 13.0065C35.0085 16.1718 37.2913 18.7833 38.3651 26.7295C41.1111 25.8347 42.2292 26.0705 43.5773 27.6113C39.1766 28.1898 37.8386 29.4072 38.0324 33.6185C38.9821 38.0811 40.7441 39.1709 45.8507 38.8542C43.7914 40.9489 42.3839 41.6162 38.7532 40.5627C38.0469 42.7675 37.5203 43.9437 35.8144 45.6881C37.9668 46.2388 39.8344 46.6299 41.5811 46.8813C41.8424 46.9189 42.101 46.9534 42.3574 46.9849C46.1851 47.4541 49.5322 47.2418 54.2236 46.5699C54.3002 46.2779 54.327 46.0282 54.3345 45.3574C52.4044 42.3895 51.063 40.8933 50.0095 38.5786C48.9559 36.2639 47.7673 31.3806 47.0152 26.3437C46.3379 20.7278 47.9578 14.715 48.346 13.3372C48.7341 11.9593 49.455 8.43215 49.455 8.43215C43.2786 8.54563 39.4937 9.27116 34.0955 12.3818C33.7512 12.5802 33.4004 12.7882 33.0419 13.0065Z" fill="#E67B18"/>
<path d="M19.1241 23.5881C21.5123 29.503 21.758 32.7845 20.344 38.5786C20.7117 38.811 21.0612 39.0301 21.3975 39.2383C23.8991 40.7874 25.6684 41.7372 28.7169 43.0978C32.5509 30.6495 31.0674 25.4644 27.1088 16.8643L19.1241 23.5881Z" fill="#E67B18"/>
<path d="M16.3516 26.7295C14.3745 25.2171 9.64524 23.5079 6.12916 22.2171C4.1954 21.5072 1.89516 22.6943 1.45582 24.7069L0.179527 30.5534C-0.0496648 31.6033 -0.0595014 32.6892 0.150634 33.7431L1.58108 40.9172C1.96726 42.8539 4.02821 43.9375 5.79882 43.0628C9.58396 41.1929 14.8514 38.2227 16.7952 35.5474C14.7343 32.2676 14.4398 30.354 16.3516 26.7295Z" fill="#E67B18"/>
<path d="M19.1241 23.5881L27.1088 16.8643C23.939 15.2868 22.3402 14.6598 20.2331 16.3132C18.126 17.9666 18.2741 20.2608 19.1241 23.5881Z" fill="#E67B18"/>
<path d="M49.455 8.43215L55.499 9.38785C50.0491 3.9032 45.5735 1.70843 40.583 2.97602C35.5926 4.2436 33.902 7.03377 34.0955 12.3818C39.4937 9.27116 43.2786 8.54563 49.455 8.43215Z" fill="#E67B18"/>
<path d="M28.7169 43.0978C25.6684 41.7372 23.8991 40.7874 21.3975 39.2383C21.8592 43.4813 22.6174 44.9717 24.8908 46.0188C27.1643 47.0659 29.8843 46.326 32.3211 44.6669C31.2082 44.2634 30.1179 43.7785 28.7169 43.0978Z" fill="#E67B18"/>
<path d="M54.2236 46.5699C49.5322 47.2418 46.1851 47.4541 42.3574 46.9849C42.4668 50.0759 43.9655 51.6403 47.0152 51.8607C50.0649 52.0812 52.6717 49.9544 54.2236 46.5699Z" fill="#E67B18"/>
<path d="M21.3975 39.2383C21.0612 39.0301 20.7117 38.811 20.344 38.5786C18.8664 43.2693 19.5677 46.4597 23.8928 47.9477C28.2178 49.4358 30.9304 48.0821 34.3727 45.3166C33.6361 45.1127 32.9747 44.9038 32.3211 44.6669C29.8843 46.326 27.1643 47.0659 24.8908 46.0188C22.6174 44.9717 21.8592 43.4813 21.3975 39.2383Z" fill="#B46012"/>
<path d="M41.5811 46.8813C40.909 51.2171 42.0802 53.6794 46.8488 53.6794C51.6175 53.6794 54.0791 50.6864 54.2236 46.5699C52.6717 49.9544 50.0649 52.0812 47.0152 51.8607C43.9655 51.6403 42.4668 50.0759 42.3574 46.9849C42.101 46.9534 41.8424 46.9189 41.5811 46.8813Z" fill="#B46012"/>
<path d="M38.3651 26.7295C35.3459 28.7217 34.6022 30.2726 34.5391 33.6185C34.9039 36.9176 35.693 38.4992 38.7532 40.5627C42.3839 41.6162 43.7914 40.9489 45.8507 38.8542C40.7441 39.1709 38.9821 38.0811 38.0324 33.6185C37.8386 29.4072 39.1766 28.1898 43.5773 27.6113C42.2292 26.0705 41.1111 25.8347 38.3651 26.7295Z" fill="#B46012"/>
<path d="M19.1241 23.5881C18.2741 20.2608 18.126 17.9666 20.2331 16.3132C22.3402 14.6598 23.939 15.2868 27.1088 16.8643L27.2235 16.7898C27.7438 16.0319 22.3235 10.5657 18.4587 13.7229C14.4109 17.0297 16.1131 20.4782 19.1241 23.5881Z" fill="#B46012"/>
<path d="M39.7513 0.165294C33.9291 0.99199 29.4694 5.63612 33.0419 13.0065C33.4004 12.7882 33.7512 12.5802 34.0955 12.3818C33.902 7.03377 35.5926 4.2436 40.583 2.97602C45.5735 1.70843 50.0491 3.9032 55.499 9.38785C50.0241 1.49117 45.5735 -0.661401 39.7513 0.165294Z" fill="#B46012"/>
<path d="M72.0229 36.0434L72.7437 34.4452C69.1831 35.5471 67.3369 35.4372 64.3709 33.6185L63.8164 34.4452C66.3437 36.7586 68.1383 37.1253 72.0229 36.0434Z" fill="#B46012"/>
<path fill-rule="evenodd" clip-rule="evenodd" d="M52.5601 21.3836C53.3814 15.8327 54.3955 13.3545 56.7743 9.58951C62.8107 11.539 65.4689 13.302 69.0286 17.5257C71.977 21.4296 73.2235 23.7522 73.7973 28.4379C73.7586 30.6986 73.6983 31.9749 72.7437 34.4452C69.1831 35.5471 67.3369 35.4372 64.3709 33.6185L63.8164 34.4452C66.3437 36.7586 68.1383 37.1253 72.0229 36.0434C68.9451 40.8961 66.3412 42.5777 61.0439 44.8063C59.0333 42.7162 58.0312 41.5964 56.4416 39.6809C53.5624 35.132 52.9788 32.8475 52.5601 28.934C52.1668 25.7138 52.2737 24.1345 52.5601 21.3836ZM66.7552 21.7142C67.3135 22.717 67.261 23.5935 67.3651 24.3596C67.3987 24.6067 67.3884 24.8862 67.3376 25.1863C66.9693 27.3633 64.4752 30.6291 61.2102 30.5322C57.4951 30.422 56.2198 27.3357 55.9425 25.1863C55.6653 23.0369 57.2733 18.7933 61.3211 18.5177C63.8481 18.3457 65.8276 20.048 66.7552 21.7142Z" fill="#E67B18"/>
<path d="M63.3728 20.7081C61.5287 20.5789 59.8795 21.2733 59.7131 24.525C59.5468 27.7766 62.3747 28.934 63.3728 28.934C64.3709 28.934 65.9234 28.1624 66.5334 26.3437C67.1433 24.525 67.3684 21.0095 63.3728 20.7081Z" fill="black"/>
<path d="M49.455 8.43215C49.455 8.43215 48.7341 11.9593 48.346 13.3372C47.9578 14.715 46.3379 20.7278 47.0152 26.3437C47.7673 31.3806 48.9559 36.2639 50.0095 38.5786C51.063 40.8933 52.4044 42.3895 54.3345 45.3574C54.327 46.0282 54.3002 46.2779 54.2236 46.5699C56.611 46.1125 58.1205 45.7135 61.0439 44.8063C59.0333 42.7162 58.0312 41.5964 56.4416 39.6809C53.5624 35.132 52.9788 32.8475 52.5601 28.934C52.1668 25.7138 52.2737 24.1345 52.5601 21.3836C53.3814 15.8327 54.3955 13.3545 56.7743 9.58951L55.499 9.38785L49.455 8.43215Z" fill="white"/>
<path d="M27.1088 16.8643C31.0674 25.4644 32.5509 30.6495 28.7169 43.0978C30.1179 43.7785 31.2082 44.2634 32.3211 44.6669C32.9747 44.9038 33.6361 45.1127 34.3727 45.3166C34.8204 45.4405 35.2959 45.5626 35.8144 45.6881C37.5203 43.9437 38.0469 42.7675 38.7532 40.5627C35.693 38.4992 34.9039 36.9176 34.5391 33.6185C34.6022 30.2726 35.3459 28.7217 38.3651 26.7295C37.2913 18.7833 35.0085 16.1718 33.0419 13.0065L27.2235 16.7898C27.1989 16.8257 27.1609 16.851 27.1088 16.8643Z" fill="white"/>
<path d="M16.3516 26.7295C14.4398 30.354 14.7343 32.2676 16.7952 35.5474L20.344 38.5786C21.758 32.7845 21.5123 29.503 19.1241 23.5881L16.3516 26.7295Z" fill="white"/>
<path fill-rule="evenodd" clip-rule="evenodd" d="M61.3211 18.5177C57.2733 18.7933 55.6653 23.0369 55.9425 25.1863C56.2198 27.3357 57.4951 30.422 61.2102 30.5322C64.4752 30.6291 66.9693 27.3633 67.3376 25.1863C67.3884 24.8862 67.3987 24.6067 67.3651 24.3596C67.261 23.5935 67.3135 22.717 66.7552 21.7142C65.8276 20.048 63.8481 18.3457 61.3211 18.5177ZM59.7131 24.525C59.8795 21.2733 61.5287 20.5789 63.3728 20.7081C67.3684 21.0095 67.1433 24.525 66.5334 26.3437C65.9234 28.1624 64.3709 28.934 63.3728 28.934C62.3747 28.934 59.5468 27.7766 59.7131 24.525Z" fill="white"/>
</svg>
