<svg width="65" height="152" viewBox="0 0 65 152" fill="none" xmlns="http://www.w3.org/2000/svg">
<path d="M6.02906 18.9487C10.5667 13.5677 13.8795 11.6525 21.0291 9.94868C28.6342 9.75763 32.8474 9.40287 39.0291 12.9487C45.5363 16.6813 49.5927 21.5926 51.0291 27.9487C42.7319 29.224 38.6557 28.5759 33.0291 24.9487C25.51 19.5901 23.0693 16.2702 21.0291 9.94868L30.0291 39.9487C35.806 38.9108 39.0654 38.5916 45.0291 39.9487C54.8755 43.6723 55.8212 47.6522 57.0291 54.9487C52.3677 56.8186 48.0291 57.9487 42.0291 54.9487C36.0291 51.9487 34.4383 46.7618 30.0291 39.9487L33.0291 69.9487C46.1857 70.5208 51.8219 74.3425 60.0291 84.9487C55.1168 87.098 51.0291 90.9487 42.0291 84.9487C33.0291 78.9487 33.9404 76.7807 33.0291 69.9487L36.0291 99.9487C43.4066 100.39 46.6128 101.802 51.0291 105.949C55.7863 111.652 56.5761 114.059 57.0291 117.949C52.0211 117.79 49.3111 117.403 45.0291 114.949C41.0253 112.864 39.0486 110.424 37.6861 106.52C37.9711 108.398 37.9592 110.078 37.4967 111.69L39.0291 123.949C43.0366 125.702 46.3573 128.268 48.0291 132.949C50.0383 138.575 48.02 144.322 45.0291 147.949C38.5907 144.843 31.8469 140.357 33.0291 132.949C33.6947 128.777 34.4395 127.525 39.0291 123.949L37.4967 111.69C36.892 113.797 35.5171 115.787 33.0291 117.949C27.7842 123.238 24.4903 124.665 18.0291 123.949C17.4785 118.852 17.7339 113.932 21.0291 108.949C24.7972 103.251 29.5694 101.945 36.0291 99.9487L33.0291 69.9487C31.6141 79.872 30.2397 84.9561 24.0291 90.9487C18.3029 95.8587 15.0255 97.0165 9.02906 96.9487C9.60784 90.0958 10.4801 86.1985 15.0291 78.9487C20.5197 72.4611 24.4488 70.5405 33.0291 69.9487L30.0291 39.9487C27.8874 47.7614 27.0291 51.9487 21.0291 57.9487C15.0291 63.9487 11.8153 62.9179 6.02906 63.9487C5.0044 58.1438 5.76573 53.9525 9.02906 48.9487C13.9031 41.4752 21.775 40.2195 30.0291 39.9487L21.0291 9.94868C20.144 17.8742 21.0291 24.9487 12.0291 27.9487C3.02906 30.9487 4.93622 30.3525 3.02906 30.9487C3.06345 26.0941 3.418 23.4219 6.02906 18.9487Z" fill="#1AA191"/>
<path d="M18.0291 0.948681L21.0291 9.94868M21.0291 9.94868C13.8795 11.6525 10.5667 13.5677 6.02906 18.9487C3.418 23.4219 3.06345 26.0941 3.02906 30.9487C4.93622 30.3525 3.02906 30.9487 12.0291 27.9487C21.0291 24.9487 20.144 17.8742 21.0291 9.94868ZM21.0291 9.94868C28.6342 9.75763 32.8474 9.40287 39.0291 12.9487C45.5363 16.6813 49.5927 21.5926 51.0291 27.9487C42.7319 29.224 38.6557 28.5759 33.0291 24.9487C25.51 19.5901 23.0693 16.2702 21.0291 9.94868ZM21.0291 9.94868L30.0291 39.9487M30.0291 39.9487C21.775 40.2195 13.9031 41.4752 9.02906 48.9487C5.76573 53.9525 5.0044 58.1438 6.02906 63.9487C11.8153 62.9179 15.0291 63.9487 21.0291 57.9487C27.0291 51.9487 27.8874 47.7614 30.0291 39.9487ZM30.0291 39.9487C35.806 38.9108 39.0654 38.5916 45.0291 39.9487C54.8755 43.6723 55.8212 47.6522 57.0291 54.9487C52.3677 56.8186 48.0291 57.9487 42.0291 54.9487C36.0291 51.9487 34.4383 46.7618 30.0291 39.9487ZM30.0291 39.9487L33.0291 69.9487M33.0291 69.9487C24.4488 70.5405 20.5197 72.4611 15.0291 78.9487C10.4801 86.1985 9.60784 90.0958 9.02906 96.9487C15.0255 97.0165 18.3029 95.8587 24.0291 90.9487C30.2397 84.9561 31.6141 79.872 33.0291 69.9487ZM33.0291 69.9487C46.1857 70.5208 51.8219 74.3425 60.0291 84.9487C55.1168 87.098 51.0291 90.9487 42.0291 84.9487C33.0291 78.9487 33.9404 76.7807 33.0291 69.9487ZM33.0291 69.9487L36.0291 99.9487M36.0291 99.9487C29.5694 101.945 24.7972 103.251 21.0291 108.949C17.7339 113.932 17.4785 118.852 18.0291 123.949C24.4903 124.665 27.7842 123.238 33.0291 117.949C35.5171 115.787 36.892 113.797 37.4967 111.69M36.0291 99.9487C36.7845 102.443 37.3927 104.586 37.6861 106.52M36.0291 99.9487C43.4066 100.39 46.6128 101.802 51.0291 105.949C55.7863 111.652 56.5761 114.059 57.0291 117.949C52.0211 117.79 49.3111 117.403 45.0291 114.949C41.0253 112.864 39.0486 110.424 37.6861 106.52M36.0291 99.9487C36.5435 102.537 37.0473 104.689 37.6861 106.52M36.0291 99.9487L37.4967 111.69M37.4967 111.69C37.9592 110.078 37.9711 108.398 37.6861 106.52M37.4967 111.69L39.0291 123.949M39.0291 123.949C34.4395 127.525 33.6947 128.777 33.0291 132.949C31.8469 140.357 38.5907 144.843 45.0291 147.949C48.02 144.322 50.0383 138.575 48.0291 132.949C46.3573 128.268 43.0366 125.702 39.0291 123.949Z" stroke="#0D9268" stroke-width="6"/>
</svg>
