<svg width="65" height="152" viewBox="0 0 65 152" fill="none" xmlns="http://www.w3.org/2000/svg">
<path d="M58.7268 132.725C54.1892 138.106 50.8764 140.021 43.7268 141.725C36.1217 141.916 31.9085 142.271 25.7268 138.725C19.2196 134.992 15.1632 130.081 13.7268 123.725C22.024 122.449 26.1002 123.098 31.7268 126.725C39.2459 132.083 41.6865 135.403 43.7268 141.725L34.7268 111.725C28.9499 112.763 25.6905 113.082 19.7268 111.725C9.88035 108.001 8.93468 104.021 7.72681 96.7247C12.3881 94.8548 16.7268 93.7247 22.7268 96.7247C28.7268 99.7247 30.3175 104.912 34.7268 111.725L31.7268 81.7247C18.5701 81.1527 12.9339 77.3309 4.72681 66.7247C9.63902 64.5755 13.7268 60.7247 22.7268 66.7247C31.7268 72.7247 30.8155 74.8927 31.7268 81.7247L28.7268 51.7248C21.3493 51.2832 18.1431 49.8719 13.7268 45.7248C8.96957 40.0213 8.17973 37.6146 7.72681 33.7248C12.7348 33.8836 15.4447 34.2702 19.7268 36.7248C23.7306 38.8097 25.7072 41.2495 27.0698 45.1536C26.7847 43.2754 26.7967 41.5952 27.2592 39.9837L25.7268 27.7248C21.7193 25.9718 18.3986 23.4057 16.7268 18.7248C14.7176 13.0989 16.7358 7.3514 19.7268 3.72475C26.1652 6.83044 32.9089 11.3168 31.7268 18.7248C31.0612 22.8961 30.3164 24.1482 25.7268 27.7248L27.2592 39.9837C27.8639 37.8766 29.2387 35.8867 31.7268 33.7248C36.9717 28.4352 40.2655 27.0085 46.7268 27.7248C47.2773 32.8211 47.0219 37.7419 43.7268 42.7248C39.9587 48.4229 35.1865 49.7284 28.7268 51.7248L31.7268 81.7247C33.1417 71.8014 34.5161 66.7173 40.7268 60.7247C46.4529 55.8147 49.7304 54.657 55.7268 54.7247C55.148 61.5777 54.2757 65.4749 49.7268 72.7247C44.2362 79.2123 40.3071 81.1329 31.7268 81.7247L34.7268 111.725C36.8685 103.912 37.7268 99.7247 43.7268 93.7247C49.7268 87.7247 52.9406 88.7555 58.7268 87.7247C59.7515 93.5296 58.9901 97.721 55.7268 102.725C50.8528 110.198 42.9808 111.454 34.7268 111.725L43.7268 141.725C44.6119 133.799 43.7268 126.725 52.7268 123.725C61.7268 120.725 59.8197 121.321 61.7268 120.725C61.6924 125.579 61.3379 128.252 58.7268 132.725Z" fill="#1AA191"/>
<path d="M46.7268 150.725L43.7268 141.725M43.7268 141.725C50.8764 140.021 54.1892 138.106 58.7268 132.725C61.3379 128.252 61.6924 125.579 61.7268 120.725C59.8197 121.321 61.7268 120.725 52.7268 123.725C43.7268 126.725 44.6119 133.799 43.7268 141.725ZM43.7268 141.725C36.1217 141.916 31.9085 142.271 25.7268 138.725C19.2196 134.992 15.1632 130.081 13.7268 123.725C22.024 122.449 26.1002 123.098 31.7268 126.725C39.2459 132.083 41.6865 135.403 43.7268 141.725ZM43.7268 141.725L34.7268 111.725M34.7268 111.725C42.9808 111.454 50.8528 110.198 55.7268 102.725C58.9901 97.721 59.7515 93.5296 58.7268 87.7247C52.9406 88.7555 49.7268 87.7247 43.7268 93.7247C37.7268 99.7247 36.8685 103.912 34.7268 111.725ZM34.7268 111.725C28.9499 112.763 25.6905 113.082 19.7268 111.725C9.88035 108.001 8.93468 104.021 7.72681 96.7247C12.3881 94.8548 16.7268 93.7247 22.7268 96.7247C28.7268 99.7247 30.3175 104.912 34.7268 111.725ZM34.7268 111.725L31.7268 81.7247M31.7268 81.7247C40.3071 81.1329 44.2362 79.2123 49.7268 72.7247C54.2757 65.4749 55.148 61.5777 55.7268 54.7247C49.7304 54.657 46.4529 55.8147 40.7268 60.7247C34.5161 66.7173 33.1417 71.8014 31.7268 81.7247ZM31.7268 81.7247C18.5701 81.1527 12.9339 77.3309 4.72681 66.7247C9.63902 64.5755 13.7268 60.7247 22.7268 66.7247C31.7268 72.7247 30.8155 74.8927 31.7268 81.7247ZM31.7268 81.7247L28.7268 51.7248M28.7268 51.7248C35.1865 49.7284 39.9587 48.4229 43.7268 42.7248C47.0219 37.7419 47.2773 32.8211 46.7268 27.7248C40.2655 27.0085 36.9717 28.4352 31.7268 33.7248C29.2387 35.8867 27.8639 37.8766 27.2592 39.9837M28.7268 51.7248C27.9713 49.2303 27.3632 47.087 27.0698 45.1536M28.7268 51.7248C21.3493 51.2832 18.1431 49.8719 13.7268 45.7248C8.96957 40.0213 8.17973 37.6146 7.72681 33.7248C12.7348 33.8836 15.4447 34.2702 19.7268 36.7248C23.7306 38.8097 25.7072 41.2495 27.0698 45.1536M28.7268 51.7248C28.2124 49.1363 27.7086 46.984 27.0698 45.1536M28.7268 51.7248L27.2592 39.9837M27.2592 39.9837C26.7967 41.5952 26.7847 43.2754 27.0698 45.1536M27.2592 39.9837L25.7268 27.7248M25.7268 27.7248C30.3164 24.1482 31.0612 22.8961 31.7268 18.7248C32.9089 11.3168 26.1652 6.83044 19.7268 3.72475C16.7358 7.3514 14.7176 13.0989 16.7268 18.7248C18.3986 23.4057 21.7193 25.9718 25.7268 27.7248Z" stroke="#0D9268" stroke-width="6"/>
</svg>
