<svg width="152" height="65" viewBox="0 0 152 65" fill="none" xmlns="http://www.w3.org/2000/svg">
<path d="M18.9487 58.7268C13.5678 54.1892 11.6525 50.8764 9.94873 43.7268C9.75768 36.1217 9.40291 31.9085 12.9487 25.7268C16.6813 19.2196 21.5927 15.1632 27.9487 13.7268C29.224 22.024 28.576 26.1002 24.9487 31.7268C19.5902 39.2459 16.2703 41.6865 9.94873 43.7268L39.9487 34.7268C38.9109 28.9499 38.5916 25.6905 39.9487 19.7268C43.6724 9.88037 47.6522 8.9347 54.9487 7.72683C56.8187 12.3881 57.9487 16.7268 54.9487 22.7268C51.9487 28.7268 46.7618 30.3175 39.9487 34.7268L69.9487 31.7268C70.5208 18.5702 74.3426 12.934 84.9487 4.72683C87.098 9.63904 90.9487 13.7268 84.9487 22.7268C78.9487 31.7268 76.7807 30.8155 69.9487 31.7268L99.9487 28.7268C100.39 21.3493 101.802 18.1431 105.949 13.7268C111.652 8.96959 114.059 8.17975 117.949 7.72683C117.79 12.7348 117.403 15.4447 114.949 19.7268C112.864 23.7306 110.424 25.7073 106.52 27.0698C108.398 26.7848 110.078 26.7967 111.69 27.2592L123.949 25.7268C125.702 21.7193 128.268 18.3986 132.949 16.7268C138.575 14.7176 144.322 16.7358 147.949 19.7268C144.843 26.1652 140.357 32.909 132.949 31.7268C128.777 31.0612 127.525 30.3164 123.949 25.7268L111.69 27.2592C113.797 27.8639 115.787 29.2387 117.949 31.7268C123.238 36.9717 124.665 40.2655 123.949 46.7268C118.852 47.2773 113.932 47.022 108.949 43.7268C103.251 39.9587 101.945 35.1865 99.9487 28.7268L69.9487 31.7268C79.8721 33.1417 84.9561 34.5161 90.9487 40.7268C95.8588 46.4529 97.0165 49.7304 96.9487 55.7268C90.0958 55.148 86.1986 54.2758 78.9487 49.7268C72.4612 44.2362 70.5406 40.3071 69.9487 31.7268L39.9487 34.7268C47.7615 36.8685 51.9487 37.7268 57.9487 43.7268C63.9487 49.7268 62.9179 52.9406 63.9487 58.7268C58.1438 59.7515 53.9525 58.9902 48.9487 55.7268C41.4752 50.8528 40.2196 42.9809 39.9487 34.7268L9.94873 43.7268C17.8743 44.6119 24.9487 43.7268 27.9487 52.7268C30.9487 61.7268 30.3525 59.8197 30.9487 61.7268C26.0941 61.6924 23.4219 61.3379 18.9487 58.7268Z" fill="#1AA191"/>
<path d="M0.948729 46.7268L9.94873 43.7268M9.94873 43.7268C11.6525 50.8764 13.5678 54.1892 18.9487 58.7268C23.4219 61.3379 26.0941 61.6924 30.9487 61.7268C30.3525 59.8197 30.9487 61.7268 27.9487 52.7268C24.9487 43.7268 17.8743 44.6119 9.94873 43.7268ZM9.94873 43.7268C9.75768 36.1217 9.40291 31.9085 12.9487 25.7268C16.6813 19.2196 21.5927 15.1632 27.9487 13.7268C29.224 22.024 28.576 26.1002 24.9487 31.7268C19.5902 39.2459 16.2703 41.6865 9.94873 43.7268ZM9.94873 43.7268L39.9487 34.7268M39.9487 34.7268C40.2196 42.9809 41.4752 50.8528 48.9487 55.7268C53.9525 58.9902 58.1438 59.7515 63.9487 58.7268C62.9179 52.9406 63.9487 49.7268 57.9487 43.7268C51.9487 37.7268 47.7615 36.8685 39.9487 34.7268ZM39.9487 34.7268C38.9109 28.9499 38.5916 25.6905 39.9487 19.7268C43.6724 9.88037 47.6522 8.9347 54.9487 7.72683C56.8187 12.3881 57.9487 16.7268 54.9487 22.7268C51.9487 28.7268 46.7618 30.3175 39.9487 34.7268ZM39.9487 34.7268L69.9487 31.7268M69.9487 31.7268C70.5406 40.3071 72.4612 44.2362 78.9487 49.7268C86.1986 54.2758 90.0958 55.148 96.9487 55.7268C97.0165 49.7304 95.8588 46.4529 90.9487 40.7268C84.9561 34.5161 79.8721 33.1417 69.9487 31.7268ZM69.9487 31.7268C70.5208 18.5702 74.3426 12.934 84.9487 4.72683C87.098 9.63904 90.9487 13.7268 84.9487 22.7268C78.9487 31.7268 76.7807 30.8155 69.9487 31.7268ZM69.9487 31.7268L99.9487 28.7268M99.9487 28.7268C101.945 35.1865 103.251 39.9587 108.949 43.7268C113.932 47.022 118.852 47.2773 123.949 46.7268C124.665 40.2655 123.238 36.9717 117.949 31.7268C115.787 29.2387 113.797 27.8639 111.69 27.2592M99.9487 28.7268C102.443 27.9714 104.586 27.3632 106.52 27.0698M99.9487 28.7268C100.39 21.3493 101.802 18.1431 105.949 13.7268C111.652 8.96959 114.059 8.17975 117.949 7.72683C117.79 12.7348 117.403 15.4447 114.949 19.7268C112.864 23.7306 110.424 25.7073 106.52 27.0698M99.9487 28.7268C102.537 28.2124 104.689 27.7086 106.52 27.0698M99.9487 28.7268L111.69 27.2592M111.69 27.2592C110.078 26.7967 108.398 26.7848 106.52 27.0698M111.69 27.2592L123.949 25.7268M123.949 25.7268C127.525 30.3164 128.777 31.0612 132.949 31.7268C140.357 32.909 144.843 26.1652 147.949 19.7268C144.322 16.7358 138.575 14.7176 132.949 16.7268C128.268 18.3986 125.702 21.7193 123.949 25.7268Z" stroke="#0D9268" stroke-width="6"/>
</svg>
